<svg width="24" height="24" viewBox="0 0 24 24" fill="none" xmlns="http://www.w3.org/2000/svg">
<path d="M0.333496 4.66666C0.333496 4.40145 0.438853 4.14709 0.626389 3.95956C0.813926 3.77202 1.06828 3.66666 1.3335 3.66666H2.66683C2.93205 3.66666 3.1864 3.77202 3.37394 3.95956C3.56147 4.14709 3.66683 4.40145 3.66683 4.66666C3.66683 4.93188 3.56147 5.18623 3.37394 5.37377C3.1864 5.56131 2.93205 5.66666 2.66683 5.66666H1.3335C1.06828 5.66666 0.813926 5.56131 0.626389 5.37377C0.438853 5.18623 0.333496 4.93188 0.333496 4.66666ZM5.66683 4.66666C5.66683 4.40145 5.77219 4.14709 5.95972 3.95956C6.14726 3.77202 6.40161 3.66666 6.66683 3.66666H22.6668C22.932 3.66666 23.1864 3.77202 23.3739 3.95956C23.5615 4.14709 23.6668 4.40145 23.6668 4.66666C23.6668 4.93188 23.5615 5.18623 23.3739 5.37377C23.1864 5.56131 22.932 5.66666 22.6668 5.66666H6.66683C6.40161 5.66666 6.14726 5.56131 5.95972 5.37377C5.77219 5.18623 5.66683 4.93188 5.66683 4.66666ZM0.333496 12C0.333496 11.7348 0.438853 11.4804 0.626389 11.2929C0.813926 11.1054 1.06828 11 1.3335 11H2.66683C2.93205 11 3.1864 11.1054 3.37394 11.2929C3.56147 11.4804 3.66683 11.7348 3.66683 12C3.66683 12.2652 3.56147 12.5196 3.37394 12.7071C3.1864 12.8946 2.93205 13 2.66683 13H1.3335C1.06828 13 0.813926 12.8946 0.626389 12.7071C0.438853 12.5196 0.333496 12.2652 0.333496 12ZM5.66683 12C5.66683 11.7348 5.77219 11.4804 5.95972 11.2929C6.14726 11.1054 6.40161 11 6.66683 11H22.6668C22.932 11 23.1864 11.1054 23.3739 11.2929C23.5615 11.4804 23.6668 11.7348 23.6668 12C23.6668 12.2652 23.5615 12.5196 23.3739 12.7071C23.1864 12.8946 22.932 13 22.6668 13H6.66683C6.40161 13 6.14726 12.8946 5.95972 12.7071C5.77219 12.5196 5.66683 12.2652 5.66683 12ZM0.333496 19.3333C0.333496 19.0681 0.438853 18.8138 0.626389 18.6262C0.813926 18.4387 1.06828 18.3333 1.3335 18.3333H2.66683C2.93205 18.3333 3.1864 18.4387 3.37394 18.6262C3.56147 18.8138 3.66683 19.0681 3.66683 19.3333C3.66683 19.5985 3.56147 19.8529 3.37394 20.0404C3.1864 20.228 2.93205 20.3333 2.66683 20.3333H1.3335C1.06828 20.3333 0.813926 20.228 0.626389 20.0404C0.438853 19.8529 0.333496 19.5985 0.333496 19.3333ZM5.66683 19.3333C5.66683 19.0681 5.77219 18.8138 5.95972 18.6262C6.14726 18.4387 6.40161 18.3333 6.66683 18.3333H22.6668C22.932 18.3333 23.1864 18.4387 23.3739 18.6262C23.5615 18.8138 23.6668 19.0681 23.6668 19.3333C23.6668 19.5985 23.5615 19.8529 23.3739 20.0404C23.1864 20.228 22.932 20.3333 22.6668 20.3333H6.66683C6.40161 20.3333 6.14726 20.228 5.95972 20.0404C5.77219 19.8529 5.66683 19.5985 5.66683 19.3333Z" fill="#007BFF"/>
</svg>
