<svg width="24" height="24" viewBox="0 0 24 24" fill="none" xmlns="http://www.w3.org/2000/svg">
<path d="M0.333332 4.66666C0.333332 4.40145 0.438689 4.14709 0.626225 3.95956C0.813762 3.77202 1.06812 3.66666 1.33333 3.66666H2.66667C2.93188 3.66666 3.18624 3.77202 3.37377 3.95956C3.56131 4.14709 3.66667 4.40145 3.66667 4.66666C3.66667 4.93188 3.56131 5.18623 3.37377 5.37377C3.18624 5.56131 2.93188 5.66666 2.66667 5.66666H1.33333C1.06812 5.66666 0.813762 5.56131 0.626225 5.37377C0.438689 5.18623 0.333332 4.93188 0.333332 4.66666ZM5.66667 4.66666C5.66667 4.40145 5.77202 4.14709 5.95956 3.95956C6.1471 3.77202 6.40145 3.66666 6.66667 3.66666H22.6667C22.9319 3.66666 23.1862 3.77202 23.3738 3.95956C23.5613 4.14709 23.6667 4.40145 23.6667 4.66666C23.6667 4.93188 23.5613 5.18623 23.3738 5.37377C23.1862 5.56131 22.9319 5.66666 22.6667 5.66666H6.66667C6.40145 5.66666 6.1471 5.56131 5.95956 5.37377C5.77202 5.18623 5.66667 4.93188 5.66667 4.66666ZM0.333332 12C0.333332 11.7348 0.438689 11.4804 0.626225 11.2929C0.813762 11.1054 1.06812 11 1.33333 11H2.66667C2.93188 11 3.18624 11.1054 3.37377 11.2929C3.56131 11.4804 3.66667 11.7348 3.66667 12C3.66667 12.2652 3.56131 12.5196 3.37377 12.7071C3.18624 12.8946 2.93188 13 2.66667 13H1.33333C1.06812 13 0.813762 12.8946 0.626225 12.7071C0.438689 12.5196 0.333332 12.2652 0.333332 12ZM5.66667 12C5.66667 11.7348 5.77202 11.4804 5.95956 11.2929C6.1471 11.1054 6.40145 11 6.66667 11H22.6667C22.9319 11 23.1862 11.1054 23.3738 11.2929C23.5613 11.4804 23.6667 11.7348 23.6667 12C23.6667 12.2652 23.5613 12.5196 23.3738 12.7071C23.1862 12.8946 22.9319 13 22.6667 13H6.66667C6.40145 13 6.1471 12.8946 5.95956 12.7071C5.77202 12.5196 5.66667 12.2652 5.66667 12ZM0.333332 19.3333C0.333332 19.0681 0.438689 18.8138 0.626225 18.6262C0.813762 18.4387 1.06812 18.3333 1.33333 18.3333H2.66667C2.93188 18.3333 3.18624 18.4387 3.37377 18.6262C3.56131 18.8138 3.66667 19.0681 3.66667 19.3333C3.66667 19.5985 3.56131 19.8529 3.37377 20.0404C3.18624 20.228 2.93188 20.3333 2.66667 20.3333H1.33333C1.06812 20.3333 0.813762 20.228 0.626225 20.0404C0.438689 19.8529 0.333332 19.5985 0.333332 19.3333ZM5.66667 19.3333C5.66667 19.0681 5.77202 18.8138 5.95956 18.6262C6.1471 18.4387 6.40145 18.3333 6.66667 18.3333H22.6667C22.9319 18.3333 23.1862 18.4387 23.3738 18.6262C23.5613 18.8138 23.6667 19.0681 23.6667 19.3333C23.6667 19.5985 23.5613 19.8529 23.3738 20.0404C23.1862 20.228 22.9319 20.3333 22.6667 20.3333H6.66667C6.40145 20.3333 6.1471 20.228 5.95956 20.0404C5.77202 19.8529 5.66667 19.5985 5.66667 19.3333Z" fill="black"/>
</svg>
