<svg width="104" height="25" viewBox="0 0 104 25" fill="none" xmlns="http://www.w3.org/2000/svg">
<rect width="2701" height="1290" transform="translate(-18 -77)" fill="white"/>
<path fill-rule="evenodd" clip-rule="evenodd" d="M25.2353 12.5C25.2353 15.8701 23.8891 18.9287 21.7003 21.1768C21.0542 21.8404 19.9921 21.4436 19.8091 20.5357L17.7468 10.3069C17.6015 9.58587 18.1012 8.89386 18.8313 8.80505L23.457 8.24242C24.0341 8.17222 24.5912 8.50377 24.7522 9.06242C25.0668 10.1546 25.2353 11.3078 25.2353 12.5ZM21.1365 5.88595C22.0684 5.7726 22.5409 4.72253 21.9017 4.03494C19.5959 1.55423 16.29 0 12.6176 0C7.8369 0 3.67716 2.63402 1.53646 6.51707C1.08448 7.33692 1.79459 8.23858 2.72392 8.12554L21.1365 5.88595ZM1.06865 10.9656C0.4889 11.0361 0.0265192 11.4953 0.00702124 12.079C0.00235268 12.2188 0 12.3591 0 12.5C0 19.4036 5.64911 25 12.6176 25C14.1039 25 15.5301 24.7454 16.8543 24.2779C17.411 24.0814 17.7093 23.4925 17.5926 22.9137L15.0765 10.4338C14.9463 9.7881 14.3413 9.35119 13.6874 9.43073L1.06865 10.9656Z" fill="#007BFF"/>
<path d="M9.53865 11.666C8.99734 11.665 8.46115 11.768 7.96085 11.9691C7.46054 12.1702 7.00598 12.4655 6.62322 12.838C6.24045 13.2104 5.93702 13.6527 5.73034 14.1396C5.52367 14.6264 5.41781 15.1481 5.41884 15.6749C5.3814 16.4668 5.56475 17.2538 5.94943 17.9526C6.86974 19.3074 7.86472 20.6127 8.93004 21.8628C9.00321 21.9501 9.09545 22.0205 9.20004 22.0688C9.30463 22.1171 9.41898 22.1422 9.53476 22.1422C9.65055 22.1422 9.76487 22.1171 9.86946 22.0688C9.97406 22.0205 10.0663 21.9501 10.1395 21.8628C11.2047 20.6107 12.2021 19.3056 13.1279 17.9526C13.509 17.2525 13.6921 16.4665 13.6585 15.6749C13.6595 15.1481 13.5536 14.6264 13.3469 14.1396C13.1403 13.6527 12.8369 13.2104 12.4541 12.838C12.0713 12.4655 11.6168 12.1702 11.1165 11.9691C10.6162 11.768 10.08 11.665 9.53865 11.666Z" fill="#CFE2FF"/>
<path fill-rule="evenodd" clip-rule="evenodd" d="M5.87068 15.6846L5.87019 15.6951C5.83681 16.4012 5.99847 17.103 6.33815 17.7275C7.24617 19.0629 8.22748 20.3496 9.27784 21.5821L9.28022 21.5849L9.28021 21.5849C9.311 21.6217 9.34983 21.6513 9.39386 21.6716C9.43788 21.692 9.48601 21.7025 9.53476 21.7025C9.5835 21.7025 9.63162 21.692 9.67564 21.6716C9.71967 21.6513 9.7585 21.6217 9.7893 21.5849L9.79142 21.5824L9.79143 21.5824C10.8417 20.3479 11.8255 19.0613 12.7389 17.7278C13.0755 17.1013 13.237 16.3996 13.207 15.693L13.2066 15.6835L13.2067 15.674C13.2076 15.2052 13.1133 14.7408 12.9294 14.3074C12.7454 13.8741 12.4753 13.4804 12.1346 13.1489C11.7939 12.8173 11.3893 12.5545 10.944 12.3755C10.4986 12.1965 10.0213 12.1048 9.5395 12.1057L9.53779 12.1057C9.05596 12.1048 8.57869 12.1965 8.13336 12.3755C7.68804 12.5545 7.28342 12.8173 6.94271 13.1489C6.602 13.4804 6.3319 13.8741 6.14794 14.3074C5.96398 14.7408 5.86975 15.2052 5.87066 15.674L5.87068 15.6846ZM13.1279 17.9526C12.2021 19.3056 11.2047 20.6107 10.1395 21.8628C10.0663 21.9501 9.97406 22.0205 9.86946 22.0688C9.76487 22.1171 9.65055 22.1422 9.53476 22.1422C9.41898 22.1422 9.30463 22.1171 9.20004 22.0688C9.09545 22.0205 9.00321 21.9501 8.93004 21.8628C7.86472 20.6127 6.86974 19.3074 5.94943 17.9526C5.56475 17.2538 5.3814 16.4668 5.41884 15.6749C5.41781 15.1481 5.52367 14.6264 5.73034 14.1396C5.93702 13.6527 6.24045 13.2104 6.62322 12.838C7.00598 12.4655 7.46054 12.1702 7.96085 11.9691C8.46115 11.768 8.99734 11.665 9.53865 11.666C10.08 11.665 10.6162 11.768 11.1165 11.9691C11.6168 12.1702 12.0713 12.4655 12.4541 12.838C12.8369 13.2104 13.1403 13.6527 13.3469 14.1396C13.5536 14.6264 13.6595 15.1481 13.6585 15.6749C13.6921 16.4665 13.509 17.2525 13.1279 17.9526Z" fill="url(#paint0_linear_477_370)"/>
<g filter="url(#filter0_d_477_370)">
<path d="M9.57022 17.2763C10.4633 17.2763 11.1873 16.5591 11.1873 15.6743C11.1873 14.7895 10.4633 14.0723 9.57022 14.0723C8.67712 14.0723 7.95312 14.7895 7.95312 15.6743C7.95312 16.5591 8.67712 17.2763 9.57022 17.2763Z" fill="#007BFF"/>
</g>
<path fill-rule="evenodd" clip-rule="evenodd" d="M9.57022 16.5171C10.0401 16.5171 10.4209 16.1397 10.4209 15.6743C10.4209 15.2088 10.0401 14.8315 9.57022 14.8315C9.10039 14.8315 8.71952 15.2088 8.71952 15.6743C8.71952 16.1397 9.10039 16.5171 9.57022 16.5171ZM11.1873 15.6743C11.1873 16.5591 10.4633 17.2763 9.57022 17.2763C8.67712 17.2763 7.95312 16.5591 7.95312 15.6743C7.95312 14.7895 8.67712 14.0723 9.57022 14.0723C10.4633 14.0723 11.1873 14.7895 11.1873 15.6743Z" fill="url(#paint1_linear_477_370)"/>
<path d="M100.291 24.4247H83.3932V14.5956H100.291V24.4247ZM95.0919 8.85969V12.3605H80.4414V1.05024H93.3317V4.55103H84.5576V8.85969H95.0919ZM100.291 12.7913L97.2583 13.8416C96.5001 14.1109 96.1751 13.9224 96.1751 13.2222V0H100.291V4.57796H104.001V8.18646H100.291V12.7913ZM96.1751 20.9239V18.0964H87.5094V20.9239H96.1751Z" fill="#3D87FF"/>
<path d="M76.2413 23.8323L73.2083 24.8825C72.45 25.1518 72.1251 24.9633 72.1251 24.2632V0H76.2413V23.8323ZM70.6357 19.4159H56.0664V8.64426H64.4342V5.19732H56.0664V1.7504H68.6317V11.9296H60.2639V15.969H70.6357V19.4159Z" fill="#3D87FF"/>
<path d="M43.9331 1.05078V5.73645L52.4093 12.7919L49.6741 15.4579L41.7937 8.86023L33.9134 15.4579L31.1782 12.7919L39.6544 5.73645V1.05078H43.9331ZM53.7633 22.1632H29.8242V18.6086H39.7086V13.8421H43.8789V18.6086H53.7633V22.1632Z" fill="#3D87FF"/>
<defs>
<filter id="filter0_d_477_370" x="-14.7575" y="-1.06813" width="48.6556" height="48.6243" filterUnits="userSpaceOnUse" color-interpolation-filters="sRGB">
<feFlood flood-opacity="0" result="BackgroundImageFix"/>
<feColorMatrix in="SourceAlpha" type="matrix" values="0 0 0 0 0 0 0 0 0 0 0 0 0 0 0 0 0 0 127 0" result="hardAlpha"/>
<feOffset dy="7.5702"/>
<feGaussianBlur stdDeviation="11.3553"/>
<feColorMatrix type="matrix" values="0 0 0 0 0 0 0 0 0 0 0 0 0 0 0 0 0 0 0.2 0"/>
<feBlend mode="normal" in2="BackgroundImageFix" result="effect1_dropShadow_477_370"/>
<feBlend mode="normal" in="SourceGraphic" in2="effect1_dropShadow_477_370" result="shape"/>
</filter>
<linearGradient id="paint0_linear_477_370" x1="6.72706" y1="12.8865" x2="13.5611" y2="19.5506" gradientUnits="userSpaceOnUse">
<stop stop-color="#4498F3"/>
<stop offset="1" stop-color="#A9D2FF"/>
</linearGradient>
<linearGradient id="paint1_linear_477_370" x1="8.46796" y1="14.4455" x2="10.5077" y2="16.9956" gradientUnits="userSpaceOnUse">
<stop stop-color="white" stop-opacity="0.25"/>
<stop offset="1" stop-color="white" stop-opacity="0"/>
</linearGradient>
</defs>
</svg>
